# File created by Blade
# Date/Time:  Thu Jan 22 16:04:59 2015
# Frame Rate: 120.000 fps
#------------------------------------------------------
:FULLY-SPECIFIED
:DEGREES
2290
root 3.491481 36.898457 4.886713 -7.582114 -4.534477 1.330227
RightUpLeg 14.205356 -3.970003 -9.097893
RightLeg -5.113933 -0.000000 0.000000
RightFoot -8.904055 -11.234537 19.460822
RightToeBase 11.715706 -0.000000 -0.000000
LeftUpLeg 12.610040 -0.169127 7.694727
LeftLeg -1.902463 -0.000000 0.000000
LeftFoot -5.799182 5.125633 -21.966048
LeftToeBase 6.783744 -0.000000 -0.000000
Spine 2.130627 -1.660106 -3.723325
RightShoulder 28.324545 9.186016 -26.597051
RightArm 85.633150 -16.898769 58.230905
RightForeArm 1.781909 -0.000000 21.444838
RightHand 0.822308 -0.000000 -3.908376
RightHandThumb1 -24.326973 -0.000000 -32.862282
LeftShoulder 11.181962 0.089071 37.472707
LeftArm 106.321783 2.837118 -63.039226
LeftForeArm 39.753871 -0.000000 8.631064
LeftHand -15.090290 -0.000000 -10.994927
LeftHandThumb1 -26.253704 0.000000 33.147579
Head -6.205984 13.580295 1.863955
2291
root 3.496329 36.897610 4.900526 -7.519868 -4.559333 1.342179
RightUpLeg 14.166776 -3.997132 -9.123064
RightLeg -5.129206 -0.000000 0.000000
RightFoot -8.898678 -11.186673 19.469460
RightToeBase 11.723026 -0.000000 -0.000000
LeftUpLeg 12.585142 -0.173620 7.669040
LeftLeg -1.922812 -0.000000 0.000000
LeftFoot -5.818704 5.159105 -21.951802
LeftToeBase 6.782930 -0.000000 -0.000000
Spine 2.096023 -1.761489 -3.654851
RightShoulder 28.353794 9.526148 -26.655140
RightArm 86.282647 -17.819702 58.161654
RightForeArm 2.293461 -0.000000 21.673510
RightHand 0.844053 -0.000000 -4.337402
RightHandThumb1 -24.326973 -0.000000 -32.862282
LeftShoulder 11.087257 -0.379179 37.557382
LeftArm 106.644561 3.294982 -62.983160
LeftForeArm 39.539846 -0.000000 8.795485
LeftHand -14.893589 -0.000000 -10.990370
LeftHandThumb1 -26.253704 0.000000 33.147579
Head -6.460315 13.857401 1.451793
2292
root 3.502111 36.896416 4.915537 -7.458231 -4.591654 1.347135
RightUpLeg 14.134035 -4.027039 -9.141080
RightLeg -5.158369 -0.000000 0.000000
RightFoot -8.881291 -11.151100 19.455222
RightToeBase 11.690957 -0.000000 -0.000000
LeftUpLeg 12.565833 -0.169313 7.649598
LeftLeg -1.944123 -0.000000 0.000000
LeftFoot -5.853983 5.193677 -21.940454
LeftToeBase 6.785657 -0.000000 -0.000000
Spine 2.048742 -1.700667 -3.573251
RightShoulder 28.270958 9.890618 -26.653280
RightArm 86.838249 -18.783660 57.937270
RightForeArm 2.845348 -0.000000 21.911636
RightHand 0.916662 -0.000000 -4.874102
RightHandThumb1 -24.326973 -0.000000 -32.862282
LeftShoulder 11.142533 -0.923653 37.625155
LeftArm 106.978780 3.770035 -63.018370
LeftForeArm 39.457463 0.000000 8.919433
LeftHand -15.049431 -0.000000 -11.122733
LeftHandThumb1 -26.253704 0.000000 33.147579
Head -6.701308 14.040954 1.077969
2293
root 3.505949 36.895345 4.929271 -7.390925 -4.634717 1.343758
RightUpLeg 14.072623 -4.098183 -9.161111
RightLeg -5.146350 -0.000000 0.000000
RightFoot -8.860719 -11.039737 19.459210
RightToeBase 11.747886 -0.000000 -0.000000
LeftUpLeg 12.544545 -0.162627 7.641744
LeftLeg -1.967073 -0.000000 0.000000
LeftFoot -5.883124 5.219957 -21.927802
LeftToeBase 6.744596 -0.000000 -0.000000
Spine 1.988493 -1.599582 -3.496214
RightShoulder 28.149845 10.259432 -26.635941
RightArm 87.332080 -19.772235 57.714766
RightForeArm 3.449636 -0.000000 22.172973
RightHand 1.114617 -0.000000 -5.484360
RightHandThumb1 -24.326973 -0.000000 -32.862282
LeftShoulder 11.223245 -1.451858 37.713730
LeftArm 107.268307 4.282033 -63.176157
LeftForeArm 39.497710 -0.000000 9.126451
LeftHand -15.104964 0.000000 -11.226566
LeftHandThumb1 -26.253704 0.000000 33.147579
Head -6.919045 14.146405 0.745510
2294
root 3.510895 36.893426 4.943158 -7.330200 -4.666610 1.359362
RightUpLeg 14.035744 -4.103081 -9.186913
RightLeg -5.168472 -0.000000 0.000000
RightFoot -8.857174 -11.005989 19.460529
RightToeBase 11.685621 -0.000000 -0.000000
LeftUpLeg 12.518622 -0.151671 7.614461
LeftLeg -1.977711 -0.000000 0.000000
LeftFoot -5.912850 5.239922 -21.938204
LeftToeBase 6.723577 -0.000000 -0.000000
Spine 1.948006 -1.888938 -3.397015
RightShoulder 28.418808 10.826116 -26.666736
RightArm 87.764196 -20.746306 57.632340
RightForeArm 3.801267 0.000000 22.468088
RightHand 1.113821 0.000000 -6.097488
RightHandThumb1 -24.326973 -0.000000 -32.862282
LeftShoulder 10.945090 -1.733131 37.753559
LeftArm 107.602386 4.684328 -63.020509
LeftForeArm 39.293112 -0.000000 9.286753
LeftHand -15.161972 -0.000000 -11.228012
LeftHandThumb1 -26.253704 0.000000 33.147579
Head -7.151424 14.627407 0.209713
2295
root 3.521515 36.891662 4.958336 -7.278733 -4.681170 1.398426
RightUpLeg 14.025255 -4.119881 -9.244550
RightLeg -5.219799 -0.000000 0.000000
RightFoot -8.844673 -10.992036 19.445553
RightToeBase 11.686673 -0.000000 -0.000000
LeftUpLeg 12.502372 -0.173849 7.546786
LeftLeg -2.002705 -0.000000 0.000000
LeftFoot -5.943422 5.306858 -21.911371
LeftToeBase 6.702914 -0.000000 -0.000000
Spine 1.888972 -1.972741 -3.342885
RightShoulder 28.461396 11.125527 -26.733292
RightArm 88.430089 -21.629247 57.264017
RightForeArm 4.419860 0.000000 22.625286
RightHand 1.359641 -0.000000 -6.839461
RightHandThumb1 -24.326973 -0.000000 -32.862282
LeftShoulder 10.882790 -2.251252 37.832837
LeftArm 107.833340 5.065895 -62.807284
LeftForeArm 39.112131 -0.000000 9.439796
LeftHand -15.055004 0.000000 -11.338616
LeftHandThumb1 -26.253704 0.000000 33.147579
Head -7.297568 14.946183 -0.204792
